# Blender v2.78 (sub 0) OBJ File: 'alice_island.blend'
# www.blender.org
mtllib aliceland_stone1.mtl
o NurbsPath
v -1.836293 27.181442 -1.817792
v -1.751187 27.181442 -1.817792
v -1.666081 27.181442 -1.817792
v -1.580974 27.181442 -1.817792
v -1.495868 27.181442 -1.817792
v -1.410761 27.181442 -1.817792
v -1.325655 27.181442 -1.817792
v -1.240549 27.181442 -1.817792
v -1.155442 27.181442 -1.817792
v -1.070336 27.181442 -1.817792
v -0.985230 27.181442 -1.817792
v -0.900123 27.181442 -1.817792
v -0.815017 27.181442 -1.817792
v -0.729910 27.181442 -1.817792
v -0.644804 27.181442 -1.817792
v -0.559698 27.181442 -1.817792
v -0.474591 27.181442 -1.817792
v -0.389485 27.181442 -1.817792
v -0.304378 27.181442 -1.817792
v -0.219272 27.181442 -1.817792
v -0.134166 27.181442 -1.817792
v -0.049059 27.181442 -1.817792
v 0.036047 27.181442 -1.817792
v 0.121153 27.181442 -1.817792
v 0.206260 27.181442 -1.817792
v 0.291366 27.181442 -1.817792
v 0.376473 27.181442 -1.817792
v 0.461579 27.181442 -1.817792
v 0.546685 27.181442 -1.817792
v 0.631792 27.181442 -1.817792
v 0.716898 27.181442 -1.817792
v 0.802005 27.181442 -1.817792
v 0.887111 27.181442 -1.817792
v 0.972217 27.181442 -1.817792
v 1.057324 27.181442 -1.817792
v 1.142430 27.181442 -1.817792
v 1.227536 27.181442 -1.817792
v 1.312643 27.181442 -1.817792
v 1.397749 27.181442 -1.817792
v 1.482856 27.181442 -1.817792
v 1.567962 27.181442 -1.817792
v 1.653068 27.181442 -1.817792
v 1.738175 27.181442 -1.817792
v 1.823281 27.181442 -1.817792
v 1.908387 27.181442 -1.817792
v 1.993494 27.181442 -1.817792
v 2.078600 27.181442 -1.817792
v 2.163707 27.181442 -1.817792
l 1 2
l 2 3
l 3 4
l 4 5
l 5 6
l 6 7
l 7 8
l 8 9
l 9 10
l 10 11
l 11 12
l 12 13
l 13 14
l 14 15
l 15 16
l 16 17
l 17 18
l 18 19
l 19 20
l 20 21
l 21 22
l 22 23
l 23 24
l 24 25
l 25 26
l 26 27
l 27 28
l 28 29
l 29 30
l 30 31
l 31 32
l 32 33
l 33 34
l 34 35
l 35 36
l 36 37
l 37 38
l 38 39
l 39 40
l 40 41
l 41 42
l 42 43
l 43 44
l 44 45
l 45 46
l 46 47
l 47 48
o Icosphere.000_Icosphere.004
v -5.307922 16.074198 3.177106
v -6.077718 15.540290 4.031804
v -6.012788 16.414631 3.245238
v -5.845769 15.917316 2.936390
v -5.643228 15.276121 3.495379
v -6.435544 15.801655 3.430489
v -5.266152 15.878032 4.000970
v -5.689008 16.511576 3.890359
v -6.187530 16.244116 4.017533
v 14.748625 6.926259 6.457443
v 13.971377 6.825356 7.454367
v 14.430515 7.603138 6.698308
v 14.198545 7.164479 6.345641
v 14.050649 6.447607 6.824017
v 13.757783 7.344040 6.961133
v 14.836832 6.614002 7.009598
v 14.494318 6.685264 7.458330
v 14.847347 7.378629 7.251717
v 14.320797 7.445509 7.485178
v -18.076773 5.576067 3.974751
v -18.425619 3.821354 4.792943
v -20.297207 3.794200 5.398420
v -21.105053 5.532135 4.954411
v -19.732738 6.633379 4.074543
v -18.849283 4.109664 6.692328
v -20.535379 6.086721 6.566144
v -20.272709 6.774088 5.607789
v -18.284815 6.948846 5.368449
v -18.713045 5.159842 7.160540
v -18.888100 5.097325 3.577035
v -18.068636 4.580587 4.208350
v -18.836945 6.233447 3.786091
v -19.923248 5.640361 3.441134
v -19.511850 3.711421 4.253328
v -19.373779 3.533226 5.045163
v -20.778780 4.891201 3.699678
v -20.948704 4.538794 5.140071
v -20.616917 6.207628 4.361915
v -19.173023 6.122370 4.590668
v -18.571823 4.912330 5.340095
v -18.382191 5.789469 5.106861
v -19.304060 4.415432 5.751644
v -20.090185 5.009943 5.828977
v -19.592247 6.208621 5.141663
v -20.144096 5.660789 5.005262
v -17.673351 6.217138 5.608125
v -17.965107 4.535416 6.404954
v -19.745081 4.509596 6.980779
v -19.208242 7.209814 5.721709
v -17.913958 5.671539 6.614009
v -18.388790 6.693072 6.353025
v -19.693922 5.645718 7.189836
v -19.488874 6.677103 6.708917
vn -0.8206 -0.5639 -0.0927
vn -0.3860 -0.8639 0.3235
vn -0.0277 -0.0246 -0.9993
vn -0.1947 -0.5638 0.8026
vn -0.4712 0.4904 0.7332
vn 0.5504 0.8342 0.0350
vn 0.8757 0.1272 -0.4658
vn 0.8306 -0.5529 0.0658
vn 0.6511 -0.2305 0.7232
vn 0.3940 0.6715 0.6275
vn 0.4520 -0.8871 -0.0936
vn -0.1145 -0.2445 -0.9629
vn -0.3226 0.7191 -0.6155
vn -0.8893 0.4327 0.1481
vn -0.9896 -0.0309 0.1406
vn -0.7767 -0.5009 0.3818
vn 0.0181 0.0394 -0.9991
vn -0.3636 -0.4593 0.8105
vn 0.0658 0.5444 0.8362
vn 0.9447 0.3198 -0.0728
vn 0.6719 -0.3460 -0.6549
vn 0.3054 -0.9410 -0.1459
vn 0.4781 -0.6899 0.5436
vn 0.8237 0.1872 0.5352
vn -0.2187 -0.9505 -0.2209
vn -0.4111 -0.0617 -0.9095
vn 0.2306 0.8472 -0.4787
vn -0.7621 0.2050 -0.6142
vn -0.2913 0.8120 0.5057
vn -0.1410 0.9554 -0.2594
vn -0.0110 -0.4345 -0.9006
vn 0.3607 0.1531 -0.9200
vn 0.6492 0.7599 0.0319
vn 0.8992 -0.0938 0.4273
vn 0.1178 -0.6264 0.7706
vn -0.6395 0.0428 0.7676
vn -0.2951 0.8738 0.3866
vn 0.6103 -0.2883 0.7378
vn -0.1412 -0.3090 0.9405
vn -0.1363 0.7730 0.6197
vn 0.5097 0.8203 0.2594
vn 0.4548 -0.4112 0.7900
vn -0.6292 -0.1132 0.7689
vn -0.4892 0.7667 0.4158
vn 0.3561 0.8946 0.2700
vn 0.2766 0.4014 0.8731
vn 0.1501 0.8516 0.5022
vn -0.3867 0.8531 0.3504
vn 0.2139 0.3776 0.9009
vn -0.3660 0.4521 0.8134
vn -0.0589 -0.1781 0.9823
vn 0.1050 -0.4163 0.9032
vn 0.6276 -0.1681 0.7602
vn 0.9784 -0.0792 0.1911
vn 0.3443 0.3795 0.8587
vn 0.7674 0.4685 0.4377
vn 0.7020 0.6677 0.2476
vn -0.0620 0.7185 -0.6927
vn -0.6158 0.5583 -0.5559
vn -0.1290 0.5337 -0.8358
vn -0.9682 0.0229 -0.2490
vn -0.9461 -0.2814 -0.1604
vn -0.8995 -0.4289 0.0832
vn -0.6055 -0.7801 -0.1575
vn -0.4289 -0.8994 -0.0850
vn 0.2808 -0.8645 -0.4168
vn 0.3021 -0.8314 -0.4664
vn 0.7334 -0.3908 -0.5562
vn 0.5097 0.1484 -0.8474
vn -0.2258 0.4434 -0.8674
vn -0.5601 0.3811 0.7356
vn -0.1313 0.7056 0.6963
vn -0.5463 -0.1954 0.8145
vn 0.3708 -0.5982 0.7104
vn 0.6685 -0.3227 -0.6700
vn 0.9015 -0.0819 0.4249
vn 0.9664 0.0662 0.2483
vn 0.5803 0.1326 -0.8035
vn 0.2447 0.9414 0.2322
vn 0.4690 0.8269 0.3101
vn -0.4829 0.5349 -0.6933
vn -0.5800 0.4219 -0.6969
vn -0.8752 0.2989 -0.3803
vn -0.9703 -0.1825 -0.1591
vn -0.5963 -0.7607 -0.2565
vn -0.6265 -0.6802 -0.3805
vn -0.3228 -0.9339 -0.1539
vn 0.2199 -0.9428 -0.2505
vn -0.0288 0.5415 -0.8402
vn 0.2142 0.1674 -0.9623
vn -0.0297 -0.2956 -0.9548
vn 0.3836 -0.6699 -0.6357
vn 0.2892 -0.5218 -0.8025
vn 0.5206 -0.1910 -0.8321
usemtl Material.055
s off
f 55//1 56//1 49//1
f 49//2 56//2 51//2
f 55//3 50//3 57//3
f 49//4 51//4 52//4
f 49//5 52//5 53//5
f 50//6 53//6 54//6
f 57//7 50//7 54//7
f 51//8 57//8 54//8
f 52//9 51//9 54//9
f 53//10 52//10 54//10
f 56//11 57//11 51//11
f 56//12 55//12 57//12
f 55//13 53//13 50//13
f 53//14 55//14 49//14
f 64//15 66//15 58//15
f 58//16 66//16 60//16
f 65//17 59//17 67//17
f 58//18 60//18 61//18
f 58//19 61//19 62//19
f 59//20 62//20 63//20
f 67//21 59//21 63//21
f 60//22 67//22 63//22
f 61//23 60//23 63//23
f 62//24 61//24 63//24
f 66//25 67//25 60//25
f 66//26 65//26 67//26
f 65//27 62//27 59//27
f 64//28 65//28 66//28
f 62//29 64//29 58//29
f 64//30 62//30 65//30
f 84//31 78//31 82//31
f 68//32 78//32 80//32
f 68//33 80//33 89//33
f 69//34 79//34 88//34
f 70//35 83//35 90//35
f 71//36 85//36 91//36
f 72//37 86//37 92//37
f 69//38 88//38 90//38
f 70//39 90//39 91//39
f 71//40 91//40 93//40
f 72//41 92//41 87//41
f 73//42 95//42 77//42
f 74//43 96//43 100//43
f 75//44 74//44 101//44
f 76//45 97//45 99//45
f 99//46 101//46 77//46
f 99//47 97//47 101//47
f 97//48 75//48 101//48
f 101//49 100//49 77//49
f 101//50 74//50 100//50
f 100//51 96//51 77//51
f 96//52 73//52 77//52
f 77//53 95//53 98//53
f 95//54 94//54 98//54
f 98//55 99//55 77//55
f 98//56 94//56 99//56
f 94//57 76//57 99//57
f 87//58 97//58 76//58
f 87//59 92//59 97//59
f 92//60 75//60 97//60
f 93//61 74//61 75//61
f 93//62 91//62 74//62
f 91//63 96//63 74//63
f 91//64 90//64 96//64
f 90//65 73//65 96//65
f 90//66 95//66 73//66
f 90//67 88//67 95//67
f 88//68 94//68 95//68
f 89//69 76//69 94//69
f 92//70 93//70 75//70
f 92//71 86//71 93//71
f 86//72 71//72 93//72
f 85//73 70//73 91//73
f 83//74 69//74 90//74
f 88//75 89//75 94//75
f 88//76 79//76 89//76
f 79//77 68//77 89//77
f 89//78 87//78 76//78
f 89//79 80//79 87//79
f 80//80 72//80 87//80
f 81//81 86//81 72//81
f 81//82 84//82 86//82
f 84//83 71//83 86//83
f 84//84 85//84 71//84
f 84//85 82//85 85//85
f 82//86 70//86 85//86
f 82//87 83//87 70//87
f 82//88 69//88 83//88
f 80//89 81//89 72//89
f 80//90 78//90 81//90
f 78//91 84//91 81//91
f 82//92 79//92 69//92
f 82//93 78//93 79//93
f 78//94 68//94 79//94
