# Blender v2.78 (sub 0) OBJ File: 'snow_island.blend'
# www.blender.org
mtllib snowland_stone2.mtl
o NurbsPath
v -1.836293 27.181442 -1.817792
v -1.751187 27.181442 -1.817792
v -1.666081 27.181442 -1.817792
v -1.580974 27.181442 -1.817792
v -1.495868 27.181442 -1.817792
v -1.410761 27.181442 -1.817792
v -1.325655 27.181442 -1.817792
v -1.240549 27.181442 -1.817792
v -1.155442 27.181442 -1.817792
v -1.070336 27.181442 -1.817792
v -0.985230 27.181442 -1.817792
v -0.900123 27.181442 -1.817792
v -0.815017 27.181442 -1.817792
v -0.729910 27.181442 -1.817792
v -0.644804 27.181442 -1.817792
v -0.559698 27.181442 -1.817792
v -0.474591 27.181442 -1.817792
v -0.389485 27.181442 -1.817792
v -0.304378 27.181442 -1.817792
v -0.219272 27.181442 -1.817792
v -0.134166 27.181442 -1.817792
v -0.049059 27.181442 -1.817792
v 0.036047 27.181442 -1.817792
v 0.121153 27.181442 -1.817792
v 0.206260 27.181442 -1.817792
v 0.291366 27.181442 -1.817792
v 0.376473 27.181442 -1.817792
v 0.461579 27.181442 -1.817792
v 0.546685 27.181442 -1.817792
v 0.631792 27.181442 -1.817792
v 0.716898 27.181442 -1.817792
v 0.802005 27.181442 -1.817792
v 0.887111 27.181442 -1.817792
v 0.972217 27.181442 -1.817792
v 1.057324 27.181442 -1.817792
v 1.142430 27.181442 -1.817792
v 1.227536 27.181442 -1.817792
v 1.312643 27.181442 -1.817792
v 1.397749 27.181442 -1.817792
v 1.482856 27.181442 -1.817792
v 1.567962 27.181442 -1.817792
v 1.653068 27.181442 -1.817792
v 1.738175 27.181442 -1.817792
v 1.823281 27.181442 -1.817792
v 1.908387 27.181442 -1.817792
v 1.993494 27.181442 -1.817792
v 2.078600 27.181442 -1.817792
v 2.163707 27.181442 -1.817792
l 1 2
l 2 3
l 3 4
l 4 5
l 5 6
l 6 7
l 7 8
l 8 9
l 9 10
l 10 11
l 11 12
l 12 13
l 13 14
l 14 15
l 15 16
l 16 17
l 17 18
l 18 19
l 19 20
l 20 21
l 21 22
l 22 23
l 23 24
l 24 25
l 25 26
l 26 27
l 27 28
l 28 29
l 29 30
l 30 31
l 31 32
l 32 33
l 33 34
l 34 35
l 35 36
l 36 37
l 37 38
l 38 39
l 39 40
l 40 41
l 41 42
l 42 43
l 43 44
l 44 45
l 45 46
l 46 47
l 47 48
o Icosphere.000_Icosphere.005
v 5.504515 4.893095 -3.476588
v 5.873519 5.340276 -3.046274
v 5.917459 4.991773 -3.617546
v 5.622574 5.171503 -3.647137
v 5.481731 5.338819 -3.199888
v 5.954344 5.397525 -3.459857
v 5.629457 4.904455 -3.010404
v 5.969440 4.787024 -3.260731
v 6.127755 5.073144 -3.215274
v 7.662830 11.497623 -5.920677
v 8.696446 11.158003 -4.796494
v 7.996969 10.707714 -5.892691
v 8.515145 11.177969 -6.240101
v 9.018551 11.655164 -5.592026
v 8.865348 10.707589 -5.434098
v 7.855936 12.035528 -5.393989
v 8.161723 11.756651 -4.794808
v 8.520658 12.073034 -5.440591
v 7.467447 11.295389 -5.248940
v 8.170839 11.732916 -6.095201
v 8.650437 11.597704 -4.797421
v 8.057680 10.765600 -4.859473
v 7.674405 10.846845 -5.203840
v -1.613697 0.614368 1.037694
v -0.772648 0.512750 1.952303
v -1.351374 -0.005764 1.059665
v -0.945494 0.362142 0.787565
v -0.549364 0.738048 1.295707
v -0.669638 -0.005863 1.419691
v -1.462095 1.036660 1.451180
v -1.222032 0.817722 1.921578
v -0.940242 1.066105 1.414594
v -1.747806 0.296948 1.595081
v -1.214874 0.824030 0.900681
v -1.303712 0.039680 1.870812
v -6.636945 2.628957 -1.142286
v -7.683075 2.739871 -2.248491
v -6.956420 3.384199 -1.169043
v -7.472693 2.928493 -0.837828
v -7.619435 3.483099 -1.544530
v -6.821577 2.114660 -1.645859
v -7.113943 2.381298 -2.218744
v -7.457127 2.078799 -1.601302
v -6.452291 2.851176 -1.815976
v -7.122661 2.373615 -0.975420
v -7.792999 2.346584 -1.362727
v -7.014467 3.328854 -2.156916
v -6.648012 3.251175 -1.827663
v -7.986743 2.903009 -1.681314
v -4.807318 1.473711 3.080052
v -4.270034 1.724148 3.492256
v -4.412008 1.274521 3.015375
v -4.533657 1.574604 2.891728
v -4.570948 1.906230 3.261183
v -4.145404 1.609568 3.102127
v -4.730802 1.537429 3.552441
v -4.518038 1.183504 3.405778
v -4.221368 1.325937 3.432124
v 0.102676 -0.789152 -1.160844
v 0.087020 -0.055391 -0.546693
v 1.190844 0.609271 -0.599040
v 1.758404 0.144714 -1.218204
v 1.302990 -0.764166 -1.688415
v 0.814797 -0.166598 0.297450
v 2.082051 -0.417647 -0.427014
v 1.945272 -0.742869 -1.017585
v 1.110893 -1.513527 -0.878393
v 1.188753 -0.707887 0.339351
v 0.366750 -0.359614 -1.498302
v 0.738687 -0.889313 -1.618802
v 0.928475 -0.216514 -1.834333
v 0.374689 0.420346 -0.961073
v 0.457078 0.391692 -0.500514
v 1.122635 0.398358 -1.675899
v 1.613531 -0.282398 -1.586360
v 1.042015 -0.778483 -1.236482
v 0.610276 -0.519092 -0.515242
v 0.738371 -0.953340 -0.786746
v 0.866426 -0.069582 -0.312568
v 1.392004 -0.053475 -0.513445
v 1.377422 -0.705817 -1.036434
v 1.409085 -0.259129 -1.075247
v 0.694299 -1.430030 -0.513902
v 0.504256 -0.648365 0.195395
v 1.379100 -0.041450 0.227837
v 1.660709 -1.322455 -0.890451
v 0.876197 -1.178062 0.074893
v 1.317920 -1.435542 -0.339866
v 1.751037 -0.571149 0.107337
v 1.858605 -1.060444 -0.319809
vn 0.2626 0.9603 -0.0938
vn -0.0355 0.8646 0.5013
vn -0.4218 0.1628 -0.8919
vn 0.1890 0.4534 0.8710
vn 0.9191 -0.1728 0.3541
vn 0.0534 -0.9905 -0.1267
vn -0.7738 -0.5892 -0.2328
vn -0.8722 -0.1063 0.4775
vn -0.2879 -0.3240 0.9012
vn 0.3362 -0.8424 0.4210
vn -0.8403 0.4083 0.3567
vn -0.4590 0.3815 -0.8024
vn 0.3522 -0.2710 -0.8958
vn 0.9434 0.2083 -0.2579
vn 0.8884 -0.4417 0.1254
vn 0.8542 0.3741 0.3611
vn -0.6620 -0.6604 -0.3545
vn 0.0153 0.0635 -0.9979
vn 0.4099 0.2049 0.8888
vn -0.4783 -0.4875 0.7305
vn -0.9423 0.0991 -0.3196
vn -0.3754 0.7072 -0.5991
vn 0.0306 0.9979 -0.0577
vn -0.3037 0.7596 0.5752
vn -0.8420 0.2183 0.4933
vn 0.2662 0.9614 -0.0695
vn 0.0934 0.0077 -0.9956
vn -0.9006 -0.0951 -0.4241
vn 0.3392 -0.0350 0.9401
vn 0.8502 0.4237 0.3125
vn 0.6764 0.2421 -0.6956
vn 0.5488 -0.0031 -0.8359
vn -0.2632 -0.8005 -0.5385
vn -0.4106 -0.7007 0.5835
vn 0.4995 -0.6910 0.5225
vn 0.6800 -0.4676 -0.5647
vn 0.0807 -0.9015 0.4253
vn 0.0207 -0.9023 -0.4306
vn 0.9340 -0.3565 0.0217
vn 0.8347 0.3676 0.4102
vn -0.6528 -0.6203 -0.4348
vn 0.1044 0.0538 -0.9931
vn 0.4100 0.2049 0.8887
vn -0.4950 -0.4680 0.7321
vn -0.9519 0.1060 -0.2873
vn -0.4336 0.6022 -0.6703
vn -0.3035 0.7599 0.5748
vn -0.8414 0.2184 0.4943
vn 0.5358 0.8407 -0.0786
vn 0.3398 -0.0320 0.9400
vn 0.5275 0.0001 -0.8496
vn -0.4305 -0.6927 -0.5787
vn -0.4250 -0.7099 0.5615
vn 0.5312 -0.6824 0.5021
vn 0.7331 -0.3914 -0.5563
vn 0.0791 -0.9175 0.3899
vn 0.8985 -0.4261 0.1057
vn 0.8553 0.3745 0.3580
vn -0.7236 -0.5930 -0.3531
vn 0.0871 0.0558 -0.9946
vn 0.3979 0.2000 0.8954
vn -0.4293 -0.4631 0.7754
vn -0.4685 0.6284 -0.6211
vn 0.1835 0.9808 -0.0657
vn -0.2466 0.7369 0.6295
vn -0.7914 0.3902 0.4705
vn -0.6657 0.5424 -0.5124
vn -0.8539 0.0006 0.5204
vn -0.8288 -0.4659 -0.3097
vn 0.3352 -0.0221 0.9419
vn 0.8497 0.4249 0.3121
vn 0.6711 0.3087 -0.6741
vn 0.5193 0.0012 -0.8546
vn -0.4141 -0.7051 -0.5756
vn -0.2707 -0.8070 0.5248
vn 0.6779 -0.4704 -0.5649
vn 0.0207 -0.9023 -0.4305
vn 0.7988 0.5654 -0.2056
vn 0.4676 0.8243 0.3192
vn -0.1784 0.1256 -0.9759
vn 0.3713 0.4784 0.7958
vn 0.5989 -0.5650 0.5676
vn -0.5536 -0.8301 0.0669
vn -0.9561 -0.0740 -0.2837
vn -0.7839 0.5485 0.2909
vn -0.4814 0.1599 0.8618
vn -0.2741 -0.7293 0.6269
vn -0.4375 0.8947 0.0898
vn -0.0801 0.3401 -0.9370
vn 0.1692 -0.6550 -0.7365
vn 0.8887 -0.4509 -0.0831
vn -0.6085 0.4543 -0.6506
vn -0.5918 -0.2406 -0.7693
vn -0.2077 -0.9753 -0.0751
vn -0.5278 -0.5518 0.6458
vn 0.0098 0.3848 0.9230
vn 0.8052 0.3097 0.5057
vn 0.8442 -0.5339 -0.0486
vn -0.2824 -0.2559 0.9245
vn 0.3422 0.2218 0.9131
vn 0.7747 -0.5858 0.2380
vn 0.1722 -0.9827 0.0683
vn -0.2112 -0.0704 0.9749
vn 0.7309 0.3851 0.5634
vn 0.9422 -0.3333 -0.0347
vn 0.3285 -0.9445 0.0105
vn 0.3847 -0.5924 0.7078
vn 0.5562 -0.8114 0.1796
vn 0.8847 -0.4558 -0.0975
vn 0.4300 -0.5382 0.7248
vn 0.8563 -0.2197 0.4673
vn 0.3707 0.0493 0.9274
vn 0.0908 0.1391 0.9861
vn -0.2219 -0.3618 0.9055
vn -0.6760 -0.5785 0.4564
vn 0.3174 -0.6164 0.7207
vn -0.1260 -0.8974 0.4229
vn -0.0543 -0.9850 0.1635
vn 0.1279 -0.4246 -0.8963
vn 0.5074 0.0292 -0.8612
vn 0.0178 -0.2226 -0.9748
vn 0.6139 0.6227 -0.4851
vn 0.4749 0.8310 -0.2898
vn 0.4673 0.8841 -0.0062
vn -0.0371 0.9992 -0.0169
vn -0.1983 0.9705 0.1376
vn -0.8418 0.5395 0.0146
vn -0.8612 0.5071 -0.0362
vn -0.9824 -0.0909 -0.1631
vn -0.6585 -0.3270 -0.6778
vn 0.0273 -0.0885 -0.9957
vn 0.9274 -0.0334 0.3725
vn 0.7684 -0.5470 0.3323
vn -0.2827 0.1360 0.9495
vn -0.9478 -0.0879 -0.3066
vn -0.5233 -0.5574 0.6446
vn -0.6997 -0.3648 -0.6143
vn 0.4185 -0.9056 -0.0695
vn 0.2272 -0.9686 0.1005
vn 0.3387 -0.0190 -0.9407
vn 0.3485 0.1292 -0.9284
vn 0.6355 0.3690 -0.6782
vn 0.4827 0.8532 -0.1977
vn -0.1447 0.9727 -0.1813
vn -0.2693 0.9570 0.1077
vn -0.7672 0.6169 0.1756
vn -0.0533 -0.2910 -0.9552
vn -0.4815 -0.1413 -0.8650
vn -0.5446 0.3664 -0.7544
vn -0.9069 0.2589 -0.3324
vn -0.8931 0.2613 -0.3662
usemtl Material.040
s off
f 55//1 56//1 49//1
f 49//2 56//2 51//2
f 55//3 50//3 57//3
f 49//4 51//4 52//4
f 49//5 52//5 53//5
f 50//6 53//6 54//6
f 57//7 50//7 54//7
f 51//8 57//8 54//8
f 52//9 51//9 54//9
f 53//10 52//10 54//10
f 56//11 57//11 51//11
f 56//12 55//12 57//12
f 55//13 53//13 50//13
f 53//14 55//14 49//14
f 64//15 67//15 58//15
f 58//16 67//16 60//16
f 66//17 62//17 69//17
f 65//18 69//18 70//18
f 58//19 60//19 61//19
f 68//20 61//20 62//20
f 59//21 62//21 63//21
f 70//22 59//22 63//22
f 60//23 70//23 63//23
f 61//24 60//24 63//24
f 62//25 61//25 63//25
f 71//26 70//26 60//26
f 70//27 69//27 59//27
f 69//28 62//28 59//28
f 68//29 58//29 61//29
f 60//30 67//30 71//30
f 71//31 67//31 70//31
f 67//32 65//32 70//32
f 65//33 66//33 69//33
f 66//34 68//34 62//34
f 64//35 58//35 68//35
f 64//36 65//36 67//36
f 66//37 64//37 68//37
f 64//38 66//38 65//38
f 78//39 81//39 72//39
f 72//40 81//40 74//40
f 80//41 76//41 73//41
f 79//42 73//42 83//42
f 72//43 74//43 75//43
f 82//44 75//44 76//44
f 73//45 76//45 77//45
f 83//46 73//46 77//46
f 74//23 83//23 77//23
f 75//47 74//47 77//47
f 76//48 75//48 77//48
f 81//49 83//49 74//49
f 82//50 72//50 75//50
f 81//51 79//51 83//51
f 79//52 80//52 73//52
f 80//53 82//53 76//53
f 78//54 72//54 82//54
f 78//55 79//55 81//55
f 80//56 78//56 82//56
f 78//38 80//38 79//38
f 89//57 92//57 84//57
f 84//58 92//58 86//58
f 91//59 94//59 85//59
f 90//60 85//60 95//60
f 84//61 86//61 87//61
f 93//62 87//62 94//62
f 95//63 85//63 88//63
f 86//64 95//64 88//64
f 87//65 86//65 88//65
f 97//66 87//66 88//66
f 88//67 85//67 97//67
f 94//68 87//68 97//68
f 96//26 95//26 86//26
f 85//69 94//69 97//69
f 93//70 84//70 87//70
f 86//71 92//71 96//71
f 96//72 92//72 95//72
f 92//73 90//73 95//73
f 90//74 91//74 85//74
f 91//75 93//75 94//75
f 89//54 84//54 93//54
f 89//76 90//76 92//76
f 91//56 89//56 93//56
f 89//77 91//77 90//77
f 104//78 105//78 98//78
f 98//79 105//79 100//79
f 104//80 99//80 106//80
f 98//81 100//81 101//81
f 98//82 101//82 102//82
f 99//83 102//83 103//83
f 106//84 99//84 103//84
f 100//85 106//85 103//85
f 101//86 100//86 103//86
f 102//87 101//87 103//87
f 105//88 106//88 100//88
f 105//89 104//89 106//89
f 104//90 102//90 99//90
f 102//91 104//91 98//91
f 122//92 117//92 120//92
f 107//93 117//93 118//93
f 107//94 118//94 126//94
f 108//95 107//95 125//95
f 109//96 121//96 127//96
f 110//97 109//97 128//97
f 111//98 123//98 129//98
f 108//99 125//99 127//99
f 109//100 127//100 128//100
f 110//101 128//101 130//101
f 111//102 129//102 124//102
f 112//103 132//103 116//103
f 113//104 133//104 137//104
f 114//105 113//105 138//105
f 115//106 134//106 136//106
f 136//107 138//107 116//107
f 136//108 134//108 138//108
f 134//109 114//109 138//109
f 138//110 137//110 116//110
f 138//111 113//111 137//111
f 137//112 133//112 116//112
f 133//113 112//113 116//113
f 116//114 132//114 135//114
f 132//115 131//115 135//115
f 135//116 136//116 116//116
f 135//117 131//117 136//117
f 131//118 115//118 136//118
f 124//119 134//119 115//119
f 124//120 129//120 134//120
f 129//121 114//121 134//121
f 130//122 113//122 114//122
f 130//123 128//123 113//123
f 128//124 133//124 113//124
f 128//125 127//125 133//125
f 127//126 112//126 133//126
f 127//127 132//127 112//127
f 127//128 125//128 132//128
f 125//129 131//129 132//129
f 126//130 115//130 131//130
f 129//131 130//131 114//131
f 129//132 123//132 130//132
f 123//133 110//133 130//133
f 121//134 108//134 127//134
f 125//135 126//135 131//135
f 125//136 107//136 126//136
f 126//137 124//137 115//137
f 126//138 118//138 124//138
f 118//139 111//139 124//139
f 119//140 123//140 111//140
f 119//141 122//141 123//141
f 122//142 110//142 123//142
f 122//143 109//143 110//143
f 122//144 120//144 109//144
f 120//145 121//145 109//145
f 120//146 108//146 121//146
f 118//147 119//147 111//147
f 118//148 117//148 119//148
f 117//149 122//149 119//149
f 120//150 107//150 108//150
f 120//151 117//151 107//151
