# Blender v2.78 (sub 0) OBJ File: 'castle_island.blend'
# www.blender.org
mtllib castleland_stone.mtl
o NurbsPath
v -1.836293 27.181442 -1.817792
v -1.751187 27.181442 -1.817792
v -1.666081 27.181442 -1.817792
v -1.580974 27.181442 -1.817792
v -1.495868 27.181442 -1.817792
v -1.410761 27.181442 -1.817792
v -1.325655 27.181442 -1.817792
v -1.240549 27.181442 -1.817792
v -1.155442 27.181442 -1.817792
v -1.070336 27.181442 -1.817792
v -0.985230 27.181442 -1.817792
v -0.900123 27.181442 -1.817792
v -0.815017 27.181442 -1.817792
v -0.729910 27.181442 -1.817792
v -0.644804 27.181442 -1.817792
v -0.559698 27.181442 -1.817792
v -0.474591 27.181442 -1.817792
v -0.389485 27.181442 -1.817792
v -0.304378 27.181442 -1.817792
v -0.219272 27.181442 -1.817792
v -0.134166 27.181442 -1.817792
v -0.049059 27.181442 -1.817792
v 0.036047 27.181442 -1.817792
v 0.121153 27.181442 -1.817792
v 0.206260 27.181442 -1.817792
v 0.291366 27.181442 -1.817792
v 0.376473 27.181442 -1.817792
v 0.461579 27.181442 -1.817792
v 0.546685 27.181442 -1.817792
v 0.631792 27.181442 -1.817792
v 0.716898 27.181442 -1.817792
v 0.802005 27.181442 -1.817792
v 0.887111 27.181442 -1.817792
v 0.972217 27.181442 -1.817792
v 1.057324 27.181442 -1.817792
v 1.142430 27.181442 -1.817792
v 1.227536 27.181442 -1.817792
v 1.312643 27.181442 -1.817792
v 1.397749 27.181442 -1.817792
v 1.482856 27.181442 -1.817792
v 1.567962 27.181442 -1.817792
v 1.653068 27.181442 -1.817792
v 1.738175 27.181442 -1.817792
v 1.823281 27.181442 -1.817792
v 1.908387 27.181442 -1.817792
v 1.993494 27.181442 -1.817792
v 2.078600 27.181442 -1.817792
v 2.163707 27.181442 -1.817792
l 1 2
l 2 3
l 3 4
l 4 5
l 5 6
l 6 7
l 7 8
l 8 9
l 9 10
l 10 11
l 11 12
l 12 13
l 13 14
l 14 15
l 15 16
l 16 17
l 17 18
l 18 19
l 19 20
l 20 21
l 21 22
l 22 23
l 23 24
l 24 25
l 25 26
l 26 27
l 27 28
l 28 29
l 29 30
l 30 31
l 31 32
l 32 33
l 33 34
l 34 35
l 35 36
l 36 37
l 37 38
l 38 39
l 39 40
l 40 41
l 41 42
l 42 43
l 43 44
l 44 45
l 45 46
l 46 47
l 47 48
o Icosphere.006
v 8.542097 0.869268 6.576344
v 8.697936 1.668188 7.630867
v 8.314481 1.561979 6.528729
v 9.035848 1.668187 6.576344
v 9.366549 1.531976 7.133163
v 8.579335 2.018500 6.964256
v 8.811816 0.634398 7.133162
v 8.693215 0.984711 7.630867
v 9.248511 0.984713 7.230851
v 8.140844 0.888440 7.048709
v 9.039673 0.984712 6.579123
v 8.906037 1.361413 7.696440
v 8.115034 1.559186 7.388580
v 8.014510 1.291486 7.048709
v 8.906037 1.361413 6.400978
v 8.916685 1.951250 7.209354
vn -0.3185 -0.9188 -0.2333
vn -0.7364 -0.2842 -0.6140
vn 0.7814 -0.0576 0.6214
vn -0.3543 0.0375 0.9344
vn -0.2571 -0.1501 -0.9547
vn 0.8411 0.0434 -0.5391
vn 0.5792 0.5052 0.6398
vn -0.3510 0.8017 0.4838
vn -0.7690 0.6144 -0.1764
vn -0.0574 0.7064 -0.7055
vn 0.6483 0.7330 -0.2057
vn 0.3980 0.8631 -0.3110
vn -0.1796 0.8573 0.4825
vn 0.8513 -0.0625 -0.5209
vn -0.0167 0.5015 -0.8650
vn -0.8170 0.5452 -0.1877
vn -0.3743 -0.0560 0.9256
vn 0.5746 0.5242 0.6285
vn 0.0972 -0.3971 -0.9126
vn -0.7795 -0.2443 -0.5768
vn -0.8474 -0.2656 0.4598
vn -0.6444 -0.3652 0.6718
vn 0.5287 -0.4264 0.7339
vn 0.9217 -0.2515 -0.2953
vn 0.2029 -0.8632 -0.4624
vn -0.3631 -0.8005 0.4769
vn 0.6399 -0.7406 -0.2051
vn 0.4227 -0.6906 0.5868
usemtl Material.046
s off
f 55//1 58//1 49//1
f 49//2 58//2 51//2
f 57//3 53//3 60//3
f 56//4 60//4 61//4
f 49//5 51//5 63//5
f 59//6 63//6 53//6
f 50//7 53//7 64//7
f 61//8 50//8 54//8
f 51//9 61//9 54//9
f 52//10 51//10 54//10
f 53//11 52//11 64//11
f 64//12 52//12 54//12
f 54//13 50//13 64//13
f 53//14 63//14 52//14
f 63//15 51//15 52//15
f 62//16 61//16 51//16
f 61//17 60//17 50//17
f 60//18 53//18 50//18
f 59//19 49//19 63//19
f 51//20 58//20 62//20
f 62//21 58//21 61//21
f 58//22 56//22 61//22
f 56//23 57//23 60//23
f 57//24 59//24 53//24
f 55//25 49//25 59//25
f 55//26 56//26 58//26
f 57//27 55//27 59//27
f 55//28 57//28 56//28
o Icosphere.013
v 6.110485 -1.017419 3.458370
v 6.214788 -0.482699 4.164166
v 5.958139 -0.553784 3.426500
v 6.440954 -0.482699 3.458369
v 6.662294 -0.573866 3.831051
v 6.135408 -0.248233 3.718000
v 6.291008 -1.174619 3.831050
v 6.211628 -0.940153 4.164166
v 6.583291 -0.940152 3.896434
v 5.841924 -1.004588 3.774525
v 6.443514 -0.940152 3.460229
v 6.354071 -0.688025 4.208055
v 5.824649 -0.555654 4.002003
v 5.757368 -0.734827 3.774525
v 6.354071 -0.688025 3.340996
v 6.361198 -0.293244 3.882046
vn -0.3185 -0.9188 -0.2333
vn -0.7364 -0.2842 -0.6140
vn 0.7814 -0.0576 0.6214
vn -0.3543 0.0375 0.9344
vn -0.2571 -0.1501 -0.9547
vn 0.8411 0.0434 -0.5391
vn 0.5792 0.5052 0.6398
vn -0.3510 0.8017 0.4838
vn -0.7690 0.6144 -0.1764
vn -0.0574 0.7064 -0.7055
vn 0.6483 0.7330 -0.2057
vn 0.3980 0.8631 -0.3110
vn -0.1796 0.8573 0.4825
vn 0.8513 -0.0625 -0.5209
vn -0.0167 0.5015 -0.8650
vn -0.8170 0.5452 -0.1877
vn -0.3743 -0.0560 0.9256
vn 0.5746 0.5242 0.6285
vn 0.0972 -0.3971 -0.9126
vn -0.7795 -0.2443 -0.5768
vn -0.8474 -0.2656 0.4598
vn -0.6444 -0.3652 0.6718
vn 0.5287 -0.4264 0.7339
vn 0.9217 -0.2515 -0.2953
vn 0.2029 -0.8632 -0.4624
vn -0.3631 -0.8005 0.4769
vn 0.6399 -0.7406 -0.2051
vn 0.4227 -0.6906 0.5868
usemtl Material.047
s off
f 71//29 74//29 65//29
f 65//30 74//30 67//30
f 73//31 69//31 76//31
f 72//32 76//32 77//32
f 65//33 67//33 79//33
f 75//34 79//34 69//34
f 66//35 69//35 80//35
f 77//36 66//36 70//36
f 67//37 77//37 70//37
f 68//38 67//38 70//38
f 69//39 68//39 80//39
f 80//40 68//40 70//40
f 70//41 66//41 80//41
f 69//42 79//42 68//42
f 79//43 67//43 68//43
f 78//44 77//44 67//44
f 77//45 76//45 66//45
f 76//46 69//46 66//46
f 75//47 65//47 79//47
f 67//48 74//48 78//48
f 78//49 74//49 77//49
f 74//50 72//50 77//50
f 72//51 73//51 76//51
f 73//52 75//52 69//52
f 71//53 65//53 75//53
f 71//54 72//54 74//54
f 73//55 71//55 75//55
f 71//56 73//56 72//56
o Icosphere.015_Icosphere.014
v 10.898941 -2.466988 6.576344
v 11.054780 -1.668068 7.630867
v 10.671325 -1.774277 6.528729
v 11.392692 -1.668069 6.576344
v 11.723393 -1.804280 7.133163
v 10.936179 -1.317756 6.964256
v 11.168660 -2.701858 7.133162
v 11.050059 -2.351545 7.630867
v 11.605355 -2.351543 7.230851
v 10.497688 -2.447816 7.048709
v 11.396517 -2.351544 6.579123
v 11.262881 -1.974843 7.696440
v 10.471878 -1.777070 7.388580
v 10.371354 -2.044770 7.048709
v 11.262881 -1.974843 6.400978
v 11.273529 -1.385006 7.209354
vn -0.3185 -0.9188 -0.2333
vn -0.7364 -0.2842 -0.6140
vn 0.7814 -0.0576 0.6214
vn -0.3543 0.0375 0.9344
vn -0.2571 -0.1501 -0.9547
vn 0.8411 0.0434 -0.5391
vn 0.5792 0.5052 0.6398
vn -0.3510 0.8017 0.4838
vn -0.7690 0.6144 -0.1764
vn -0.0574 0.7064 -0.7055
vn 0.6483 0.7330 -0.2057
vn 0.3980 0.8631 -0.3110
vn -0.1796 0.8573 0.4825
vn 0.8513 -0.0625 -0.5209
vn -0.0167 0.5015 -0.8650
vn -0.8170 0.5452 -0.1877
vn -0.3743 -0.0560 0.9256
vn 0.5746 0.5242 0.6285
vn 0.0972 -0.3971 -0.9126
vn -0.7795 -0.2443 -0.5768
vn -0.8474 -0.2656 0.4598
vn -0.6444 -0.3652 0.6718
vn 0.5287 -0.4264 0.7339
vn 0.9217 -0.2515 -0.2953
vn 0.2028 -0.8632 -0.4624
vn -0.3631 -0.8005 0.4769
vn 0.6399 -0.7406 -0.2051
vn 0.4227 -0.6906 0.5868
usemtl Material.048
s off
f 87//57 90//57 81//57
f 81//58 90//58 83//58
f 89//59 85//59 92//59
f 88//60 92//60 93//60
f 81//61 83//61 95//61
f 91//62 95//62 85//62
f 82//63 85//63 96//63
f 93//64 82//64 86//64
f 83//65 93//65 86//65
f 84//66 83//66 86//66
f 85//67 84//67 96//67
f 96//68 84//68 86//68
f 86//69 82//69 96//69
f 85//70 95//70 84//70
f 95//71 83//71 84//71
f 94//72 93//72 83//72
f 93//73 92//73 82//73
f 92//74 85//74 82//74
f 91//75 81//75 95//75
f 83//76 90//76 94//76
f 94//77 90//77 93//77
f 90//78 88//78 93//78
f 88//79 89//79 92//79
f 89//80 91//80 85//80
f 87//81 81//81 91//81
f 87//82 88//82 90//82
f 89//83 87//83 91//83
f 87//84 89//84 88//84
o Icosphere.016_Icosphere.021
v -10.946372 -1.221961 3.138805
v -10.790533 -0.423042 4.193327
v -11.173988 -0.529250 3.091190
v -10.452621 -0.423043 3.138805
v -10.121920 -0.559253 3.695624
v -10.909134 -0.072729 3.526716
v -10.676653 -1.456831 3.695623
v -10.795254 -1.106519 4.193327
v -10.239958 -1.106517 3.793312
v -11.347625 -1.202790 3.611170
v -10.448796 -1.106517 3.141584
v -10.582432 -0.729816 4.258901
v -11.373435 -0.532043 3.951041
v -11.473959 -0.799743 3.611170
v -10.582432 -0.729817 2.963438
v -10.571784 -0.139980 3.771815
vn -0.3185 -0.9188 -0.2333
vn -0.7364 -0.2842 -0.6140
vn 0.7814 -0.0576 0.6214
vn -0.3543 0.0375 0.9344
vn -0.2571 -0.1501 -0.9547
vn 0.8411 0.0434 -0.5391
vn 0.5792 0.5052 0.6398
vn -0.3510 0.8017 0.4838
vn -0.7690 0.6144 -0.1764
vn -0.0574 0.7064 -0.7055
vn 0.6483 0.7330 -0.2057
vn 0.3980 0.8631 -0.3110
vn -0.1796 0.8573 0.4825
vn 0.8513 -0.0625 -0.5209
vn -0.0167 0.5015 -0.8650
vn -0.8170 0.5452 -0.1877
vn -0.3743 -0.0560 0.9256
vn 0.5746 0.5242 0.6285
vn 0.0972 -0.3971 -0.9126
vn -0.7795 -0.2443 -0.5768
vn -0.8474 -0.2656 0.4598
vn -0.6444 -0.3652 0.6718
vn 0.5287 -0.4264 0.7339
vn 0.9217 -0.2515 -0.2953
vn 0.2029 -0.8632 -0.4624
vn -0.3631 -0.8005 0.4769
vn 0.6399 -0.7406 -0.2051
vn 0.4227 -0.6906 0.5868
usemtl Material.049
s off
f 103//85 106//85 97//85
f 97//86 106//86 99//86
f 105//87 101//87 108//87
f 104//88 108//88 109//88
f 97//89 99//89 111//89
f 107//90 111//90 101//90
f 98//91 101//91 112//91
f 109//92 98//92 102//92
f 99//93 109//93 102//93
f 100//94 99//94 102//94
f 101//95 100//95 112//95
f 112//96 100//96 102//96
f 102//97 98//97 112//97
f 101//98 111//98 100//98
f 111//99 99//99 100//99
f 110//100 109//100 99//100
f 109//101 108//101 98//101
f 108//102 101//102 98//102
f 107//103 97//103 111//103
f 99//104 106//104 110//104
f 110//105 106//105 109//105
f 106//106 104//106 109//106
f 104//107 105//107 108//107
f 105//108 107//108 101//108
f 103//109 97//109 107//109
f 103//110 104//110 106//110
f 105//111 103//111 107//111
f 103//112 105//112 104//112
o Icosphere.017_Icosphere.022
v -10.086619 1.824955 10.628736
v -9.930780 2.623874 11.683258
v -10.314236 2.517666 10.581121
v -9.592869 2.623873 10.628736
v -9.262167 2.487663 11.185555
v -10.049381 2.974187 11.016647
v -9.816900 1.590085 11.185555
v -9.935501 1.940398 11.683258
v -9.380205 1.940399 11.283243
v -10.487872 1.844126 11.101101
v -9.589044 1.940399 10.631516
v -9.722679 2.317100 11.748833
v -10.513682 2.514873 11.440972
v -10.614206 2.247173 11.101101
v -9.722679 2.317100 10.453369
v -9.712031 2.906936 11.261746
vn -0.3185 -0.9188 -0.2333
vn -0.7364 -0.2842 -0.6140
vn 0.7814 -0.0576 0.6214
vn -0.3543 0.0375 0.9344
vn -0.2571 -0.1501 -0.9547
vn 0.8411 0.0434 -0.5391
vn 0.5792 0.5052 0.6398
vn -0.3510 0.8017 0.4838
vn -0.7690 0.6144 -0.1764
vn -0.0574 0.7064 -0.7055
vn 0.6483 0.7330 -0.2057
vn 0.3980 0.8631 -0.3110
vn -0.1796 0.8573 0.4825
vn 0.8513 -0.0625 -0.5209
vn -0.0167 0.5015 -0.8650
vn -0.8170 0.5452 -0.1877
vn -0.3743 -0.0560 0.9256
vn 0.5746 0.5242 0.6285
vn 0.0972 -0.3971 -0.9126
vn -0.7795 -0.2443 -0.5768
vn -0.8474 -0.2656 0.4598
vn -0.6444 -0.3652 0.6718
vn 0.5287 -0.4264 0.7339
vn 0.9217 -0.2515 -0.2953
vn 0.2028 -0.8632 -0.4624
vn -0.3631 -0.8005 0.4769
vn 0.6399 -0.7406 -0.2051
vn 0.4227 -0.6906 0.5868
usemtl Material.050
s off
f 119//113 122//113 113//113
f 113//114 122//114 115//114
f 121//115 117//115 124//115
f 120//116 124//116 125//116
f 113//117 115//117 127//117
f 123//118 127//118 117//118
f 114//119 117//119 128//119
f 125//120 114//120 118//120
f 115//121 125//121 118//121
f 116//122 115//122 118//122
f 117//123 116//123 128//123
f 128//124 116//124 118//124
f 118//125 114//125 128//125
f 117//126 127//126 116//126
f 127//127 115//127 116//127
f 126//128 125//128 115//128
f 125//129 124//129 114//129
f 124//130 117//130 114//130
f 123//131 113//131 127//131
f 115//132 122//132 126//132
f 126//133 122//133 125//133
f 122//134 120//134 125//134
f 120//135 121//135 124//135
f 121//136 123//136 117//136
f 119//137 113//137 123//137
f 119//138 120//138 122//138
f 121//139 119//139 123//139
f 119//140 121//140 120//140
