# Blender v2.78 (sub 0) OBJ File: 'island3.blend'
# www.blender.org
mtllib island3_stone3.mtl
o NurbsPath
v -1.836293 27.181442 -1.817792
v -1.751187 27.181442 -1.817792
v -1.666081 27.181442 -1.817792
v -1.580974 27.181442 -1.817792
v -1.495868 27.181442 -1.817792
v -1.410761 27.181442 -1.817792
v -1.325655 27.181442 -1.817792
v -1.240549 27.181442 -1.817792
v -1.155442 27.181442 -1.817792
v -1.070336 27.181442 -1.817792
v -0.985230 27.181442 -1.817792
v -0.900123 27.181442 -1.817792
v -0.815017 27.181442 -1.817792
v -0.729910 27.181442 -1.817792
v -0.644804 27.181442 -1.817792
v -0.559698 27.181442 -1.817792
v -0.474591 27.181442 -1.817792
v -0.389485 27.181442 -1.817792
v -0.304378 27.181442 -1.817792
v -0.219272 27.181442 -1.817792
v -0.134166 27.181442 -1.817792
v -0.049059 27.181442 -1.817792
v 0.036047 27.181442 -1.817792
v 0.121153 27.181442 -1.817792
v 0.206260 27.181442 -1.817792
v 0.291366 27.181442 -1.817792
v 0.376473 27.181442 -1.817792
v 0.461579 27.181442 -1.817792
v 0.546685 27.181442 -1.817792
v 0.631792 27.181442 -1.817792
v 0.716898 27.181442 -1.817792
v 0.802005 27.181442 -1.817792
v 0.887111 27.181442 -1.817792
v 0.972217 27.181442 -1.817792
v 1.057324 27.181442 -1.817792
v 1.142430 27.181442 -1.817792
v 1.227536 27.181442 -1.817792
v 1.312643 27.181442 -1.817792
v 1.397749 27.181442 -1.817792
v 1.482856 27.181442 -1.817792
v 1.567962 27.181442 -1.817792
v 1.653068 27.181442 -1.817792
v 1.738175 27.181442 -1.817792
v 1.823281 27.181442 -1.817792
v 1.908387 27.181442 -1.817792
v 1.993494 27.181442 -1.817792
v 2.078600 27.181442 -1.817792
v 2.163707 27.181442 -1.817792
l 1 2
l 2 3
l 3 4
l 4 5
l 5 6
l 6 7
l 7 8
l 8 9
l 9 10
l 10 11
l 11 12
l 12 13
l 13 14
l 14 15
l 15 16
l 16 17
l 17 18
l 18 19
l 19 20
l 20 21
l 21 22
l 22 23
l 23 24
l 24 25
l 25 26
l 26 27
l 27 28
l 28 29
l 29 30
l 30 31
l 31 32
l 32 33
l 33 34
l 34 35
l 35 36
l 36 37
l 37 38
l 38 39
l 39 40
l 40 41
l 41 42
l 42 43
l 43 44
l 44 45
l 45 46
l 46 47
l 47 48
o Icosphere.000_Icosphere.009
v -8.835494 10.386336 1.076232
v -9.154224 10.899995 2.994094
v -8.502112 11.379496 1.421368
v -9.486895 11.429949 1.231559
v -10.127482 10.999492 2.176632
v -9.164311 11.756244 2.427780
v -9.274142 9.741624 1.700638
v -9.134309 9.945262 2.603470
v -9.945605 10.178285 2.007870
v -8.261570 10.139834 1.773361
v -9.562503 10.581017 1.117753
v -9.466572 10.435500 2.896083
v -8.257371 10.882071 2.632991
v -8.078607 10.701885 2.012419
v 10.552685 7.598577 6.169421
v 9.983875 7.524735 6.898994
v 10.319884 8.093933 6.345691
v 10.150124 7.772913 6.087601
v 10.041889 7.248287 6.437689
v 9.827562 7.904320 6.538034
v 10.588601 7.367564 6.744228
v 10.624931 7.929633 6.750690
v 10.239590 7.978578 6.921543
vn -0.3397 0.7633 0.5495
vn -0.7657 0.0338 0.6423
vn 0.8067 0.2850 -0.5176
vn -0.3131 0.3213 -0.8937
vn -0.1956 -0.2627 0.9449
vn 0.8484 -0.1439 0.5095
vn 0.5436 -0.4586 -0.7030
vn -0.3271 -0.5240 -0.7864
vn -0.6649 -0.7285 -0.1648
vn -0.1042 -0.9520 0.2878
vn 0.6086 -0.7918 0.0519
vn -0.8176 -0.5716 -0.0695
vn -0.3346 0.4046 -0.8511
vn 0.6077 -0.2496 -0.7539
vn 0.0205 -0.1346 0.9907
vn -0.8067 0.0113 0.5909
vn -0.8299 0.4242 -0.3623
vn -0.6193 0.5958 -0.5114
vn 0.5546 0.6702 -0.4932
vn 0.8943 0.1088 0.4341
vn 0.2059 0.6049 0.7692
vn -0.3521 0.9233 -0.1537
vn 0.6193 0.5801 0.5290
vn 0.4391 0.8594 -0.2619
vn -0.9942 0.0633 0.0875
vn -0.7767 -0.5009 0.3818
vn -0.2046 0.1632 -0.9651
vn -0.3636 -0.4593 0.8105
vn 0.0658 0.5444 0.8362
vn 0.9447 0.3198 -0.0728
vn 0.6719 -0.3460 -0.6548
vn 0.3054 -0.9410 -0.1459
vn 0.4781 -0.6899 0.5436
vn 0.8237 0.1872 0.5352
vn -0.2187 -0.9505 -0.2209
vn -0.4012 0.0365 -0.9153
vn 0.0946 0.8591 -0.5030
vn -0.3889 0.8462 0.3644
usemtl Material.012
s off
f 55//1 58//1 49//1
f 49//2 58//2 51//2
f 57//3 53//3 60//3
f 56//4 60//4 61//4
f 49//5 51//5 52//5
f 59//6 52//6 53//6
f 50//7 53//7 54//7
f 61//8 50//8 54//8
f 51//9 61//9 54//9
f 52//10 51//10 54//10
f 53//11 52//11 54//11
f 62//12 61//12 51//12
f 61//13 60//13 50//13
f 60//14 53//14 50//14
f 59//15 49//15 52//15
f 51//16 58//16 62//16
f 62//17 58//17 61//17
f 58//18 56//18 61//18
f 56//19 57//19 60//19
f 57//20 59//20 53//20
f 55//21 49//21 59//21
f 55//22 56//22 58//22
f 57//23 55//23 59//23
f 55//24 57//24 56//24
f 69//25 70//25 63//25
f 63//26 70//26 65//26
f 69//27 64//27 71//27
f 63//28 65//28 66//28
f 63//29 66//29 67//29
f 64//30 67//30 68//30
f 71//31 64//31 68//31
f 65//32 71//32 68//32
f 66//33 65//33 68//33
f 67//34 66//34 68//34
f 70//35 71//35 65//35
f 70//36 69//36 71//36
f 69//37 67//37 64//37
f 67//38 69//38 63//38
