# Blender v2.78 (sub 0) OBJ File: 'island3.blend'
# www.blender.org
mtllib island3_stone1.mtl
o NurbsPath
v -1.836293 27.181442 -1.817792
v -1.751187 27.181442 -1.817792
v -1.666081 27.181442 -1.817792
v -1.580974 27.181442 -1.817792
v -1.495868 27.181442 -1.817792
v -1.410761 27.181442 -1.817792
v -1.325655 27.181442 -1.817792
v -1.240549 27.181442 -1.817792
v -1.155442 27.181442 -1.817792
v -1.070336 27.181442 -1.817792
v -0.985230 27.181442 -1.817792
v -0.900123 27.181442 -1.817792
v -0.815017 27.181442 -1.817792
v -0.729910 27.181442 -1.817792
v -0.644804 27.181442 -1.817792
v -0.559698 27.181442 -1.817792
v -0.474591 27.181442 -1.817792
v -0.389485 27.181442 -1.817792
v -0.304378 27.181442 -1.817792
v -0.219272 27.181442 -1.817792
v -0.134166 27.181442 -1.817792
v -0.049059 27.181442 -1.817792
v 0.036047 27.181442 -1.817792
v 0.121153 27.181442 -1.817792
v 0.206260 27.181442 -1.817792
v 0.291366 27.181442 -1.817792
v 0.376473 27.181442 -1.817792
v 0.461579 27.181442 -1.817792
v 0.546685 27.181442 -1.817792
v 0.631792 27.181442 -1.817792
v 0.716898 27.181442 -1.817792
v 0.802005 27.181442 -1.817792
v 0.887111 27.181442 -1.817792
v 0.972217 27.181442 -1.817792
v 1.057324 27.181442 -1.817792
v 1.142430 27.181442 -1.817792
v 1.227536 27.181442 -1.817792
v 1.312643 27.181442 -1.817792
v 1.397749 27.181442 -1.817792
v 1.482856 27.181442 -1.817792
v 1.567962 27.181442 -1.817792
v 1.653068 27.181442 -1.817792
v 1.738175 27.181442 -1.817792
v 1.823281 27.181442 -1.817792
v 1.908387 27.181442 -1.817792
v 1.993494 27.181442 -1.817792
v 2.078600 27.181442 -1.817792
v 2.163707 27.181442 -1.817792
l 1 2
l 2 3
l 3 4
l 4 5
l 5 6
l 6 7
l 7 8
l 8 9
l 9 10
l 10 11
l 11 12
l 12 13
l 13 14
l 14 15
l 15 16
l 16 17
l 17 18
l 18 19
l 19 20
l 20 21
l 21 22
l 22 23
l 23 24
l 24 25
l 25 26
l 26 27
l 27 28
l 28 29
l 29 30
l 30 31
l 31 32
l 32 33
l 33 34
l 34 35
l 35 36
l 36 37
l 37 38
l 38 39
l 39 40
l 40 41
l 41 42
l 42 43
l 43 44
l 44 45
l 45 46
l 46 47
l 47 48
o Icosphere.000_Icosphere.009
v 9.915846 7.183477 0.118597
v 10.437237 6.878489 -1.748293
v 9.597096 6.233906 -0.211391
v 10.562870 6.177948 -0.041513
v 10.014296 5.860627 -1.025008
v 10.335245 7.799897 -0.478406
v 10.201548 7.605196 -1.341616
v 9.335208 7.403888 -0.589951
v 10.635496 7.027298 0.083840
v 11.171409 7.102160 -0.711471
v 9.363095 6.709500 -1.369841
v 9.192176 6.881779 -0.776504
v 10.782505 6.246764 -1.290563
vn -0.3621 0.7638 0.5343
vn -0.7676 0.0353 0.6400
vn -0.3599 0.3640 -0.8590
vn -0.1819 -0.2677 0.9462
vn 0.8263 -0.1507 0.5426
vn -0.2152 -0.5047 -0.8361
vn -0.7682 -0.6316 -0.1041
vn -0.1175 -0.9241 0.3637
vn 0.4576 -0.8886 0.0315
vn 0.0118 -0.5825 -0.8128
vn 0.8681 -0.4801 0.1262
vn -0.8176 -0.5716 -0.0695
vn 0.8135 0.0236 -0.5811
vn 0.0158 -0.1473 0.9890
vn -0.8072 0.0103 0.5902
vn -0.8622 0.3626 -0.3537
vn -0.6053 0.5836 -0.5413
vn 0.6383 0.5231 -0.5648
vn 0.1720 0.6225 0.7635
vn -0.3488 0.9244 -0.1545
vn 0.6360 0.6002 0.4851
vn 0.5736 0.7755 -0.2638
usemtl Material.012
s off
f 54//1 56//1 49//1
f 49//2 56//2 51//2
f 55//3 50//3 59//3
f 49//4 51//4 52//4
f 57//5 52//5 58//5
f 59//6 50//6 53//6
f 51//7 59//7 53//7
f 52//8 51//8 53//8
f 61//9 52//9 53//9
f 53//10 50//10 61//10
f 58//11 52//11 61//11
f 60//12 59//12 51//12
f 50//13 58//13 61//13
f 57//14 49//14 52//14
f 51//15 56//15 60//15
f 60//16 56//16 59//16
f 56//17 55//17 59//17
f 55//18 58//18 50//18
f 54//19 49//19 57//19
f 54//20 55//20 56//20
f 58//21 54//21 57//21
f 54//22 58//22 55//22
