# Blender v2.78 (sub 0) OBJ File: 'island3.blend'
# www.blender.org
mtllib island3_basestone.mtl
o NurbsPath
v -1.836293 27.181442 -1.817792
v -1.751187 27.181442 -1.817792
v -1.666081 27.181442 -1.817792
v -1.580974 27.181442 -1.817792
v -1.495868 27.181442 -1.817792
v -1.410761 27.181442 -1.817792
v -1.325655 27.181442 -1.817792
v -1.240549 27.181442 -1.817792
v -1.155442 27.181442 -1.817792
v -1.070336 27.181442 -1.817792
v -0.985230 27.181442 -1.817792
v -0.900123 27.181442 -1.817792
v -0.815017 27.181442 -1.817792
v -0.729910 27.181442 -1.817792
v -0.644804 27.181442 -1.817792
v -0.559698 27.181442 -1.817792
v -0.474591 27.181442 -1.817792
v -0.389485 27.181442 -1.817792
v -0.304378 27.181442 -1.817792
v -0.219272 27.181442 -1.817792
v -0.134166 27.181442 -1.817792
v -0.049059 27.181442 -1.817792
v 0.036047 27.181442 -1.817792
v 0.121153 27.181442 -1.817792
v 0.206260 27.181442 -1.817792
v 0.291366 27.181442 -1.817792
v 0.376473 27.181442 -1.817792
v 0.461579 27.181442 -1.817792
v 0.546685 27.181442 -1.817792
v 0.631792 27.181442 -1.817792
v 0.716898 27.181442 -1.817792
v 0.802005 27.181442 -1.817792
v 0.887111 27.181442 -1.817792
v 0.972217 27.181442 -1.817792
v 1.057324 27.181442 -1.817792
v 1.142430 27.181442 -1.817792
v 1.227536 27.181442 -1.817792
v 1.312643 27.181442 -1.817792
v 1.397749 27.181442 -1.817792
v 1.482856 27.181442 -1.817792
v 1.567962 27.181442 -1.817792
v 1.653068 27.181442 -1.817792
v 1.738175 27.181442 -1.817792
v 1.823281 27.181442 -1.817792
v 1.908387 27.181442 -1.817792
v 1.993494 27.181442 -1.817792
v 2.078600 27.181442 -1.817792
v 2.163707 27.181442 -1.817792
l 1 2
l 2 3
l 3 4
l 4 5
l 5 6
l 6 7
l 7 8
l 8 9
l 9 10
l 10 11
l 11 12
l 12 13
l 13 14
l 14 15
l 15 16
l 16 17
l 17 18
l 18 19
l 19 20
l 20 21
l 21 22
l 22 23
l 23 24
l 24 25
l 25 26
l 26 27
l 27 28
l 28 29
l 29 30
l 30 31
l 31 32
l 32 33
l 33 34
l 34 35
l 35 36
l 36 37
l 37 38
l 38 39
l 39 40
l 40 41
l 41 42
l 42 43
l 43 44
l 44 45
l 45 46
l 46 47
l 47 48
o Icosphere.000_Icosphere.011
v -11.314501 1.336329 -5.069299
v -12.114597 1.492621 -6.148258
v -12.111374 0.932960 -5.024179
v -11.916248 1.560547 -4.921822
v -11.640761 1.990885 -5.718781
v -12.548300 1.450596 -5.472258
v -11.226679 1.209021 -5.947154
v -11.729291 0.597856 -5.597107
v -12.267809 0.789258 -5.850222
v -14.172735 1.491372 -1.171113
v -14.861303 -0.025307 -3.610134
v -13.705206 -0.027713 -1.053682
v -15.212864 -0.064025 -0.828408
v -16.114824 -0.030750 -2.357099
v -14.680193 -1.132020 -2.212898
v -14.768164 2.003838 -2.384089
v -14.518213 1.248196 -3.458868
v -15.798866 1.194522 -2.583573
v -13.020735 1.183307 -2.201936
v -15.325666 1.195798 -1.169199
v -13.237478 0.014639 -2.924782
v 6.722375 4.820706 -8.544869
v 6.181802 3.630010 -10.459667
v 7.089417 3.628121 -8.452679
v 5.905803 3.599613 -8.275824
v 5.197701 3.625736 -9.475949
v 6.323986 2.761165 -9.362742
v 6.254922 5.223026 -9.497139
v 6.451150 4.629797 -10.340914
v 5.445751 4.587658 -9.653747
v 7.626775 4.578855 -9.354136
v 5.817245 4.588660 -8.543366
v 7.456615 3.661370 -9.921619
v 9.454102 -0.524057 -4.217684
v 10.221687 2.763125 0.027008
v 8.580479 2.314500 -4.437115
v 11.693839 2.859876 -4.262578
v 12.600789 2.863120 -1.626747
v 9.777511 4.226402 -2.693535
v 10.566717 -1.481648 -1.951120
v 10.099662 -0.069659 0.057207
v 12.492682 0.030636 -1.578367
v 7.736458 -0.134016 -1.574854
v 8.128602 -0.666317 -2.944738
v 11.608465 0.028251 -4.221261
v 13.102695 1.618642 -2.337250
v 11.068585 1.520052 0.302761
v 7.706484 2.235359 -0.940784
v 7.241534 1.126112 -2.307405
v 11.094040 1.577116 -4.958768
v 11.211702 3.987164 -1.701732
v 4.577684 0.581194 -4.817684
v 4.104832 1.636807 -6.175819
v 2.046043 1.328488 -6.849636
v 2.899693 -0.736381 -4.163137
v 3.248111 0.663700 -7.973575
v 1.728597 -1.479319 -7.030718
v 1.953117 -1.730861 -5.829755
v 4.149647 -1.708716 -5.445857
v 3.821420 -0.650947 -7.934942
v 3.486317 0.818284 -4.491859
v 2.304788 0.276072 -4.179066
v 2.878493 1.903996 -5.741272
v 3.071498 1.776335 -6.576810
v 1.394742 0.878587 -4.771514
v 2.972228 -0.753938 -5.290302
v 3.916776 0.322877 -6.265035
v 4.080803 -0.451776 -5.671482
v 4.734474 0.364817 -7.277475
v 1.007982 -0.185188 -6.199565
v 1.331299 0.663656 -6.544546
v 1.923226 -0.508033 -4.655451
v 4.871662 -1.040748 -5.953742
v 2.693085 0.016811 -8.068815
v 3.124192 -2.156563 -5.718682
v 4.667375 -0.905287 -7.162815
v 4.084152 -1.847444 -6.509908
v 2.506453 -1.761839 -7.425812
vn -0.8058 0.5692 -0.1632
vn -0.3751 0.6692 -0.6415
vn -0.0777 0.4033 0.9118
vn -0.1594 0.2070 -0.9653
vn -0.4069 -0.7376 -0.5389
vn 0.5469 -0.7807 0.3023
vn 0.8394 0.0466 0.5415
vn 0.8348 0.4935 -0.2440
vn 0.6627 -0.0847 -0.7441
vn 0.4213 -0.8509 -0.3138
vn 0.4208 0.8769 -0.2322
vn -0.1633 0.5880 0.7922
vn -0.3260 -0.4200 0.8469
vn -0.8861 -0.4630 -0.0215
vn -0.4024 -0.8973 -0.1816
vn -0.6815 -0.2625 -0.6831
vn 0.7061 -0.0516 0.7062
vn -0.3887 -0.0047 0.9213
vn -0.1439 -0.1202 -0.9823
vn 0.8591 -0.0606 -0.5082
vn 0.4956 0.7110 0.4989
vn -0.2790 0.7348 0.6182
vn -0.6591 0.7373 -0.1481
vn -0.1131 0.7652 -0.6338
vn 0.5947 0.7308 -0.3350
vn -0.9240 0.3099 -0.2240
vn 0.0638 -0.2553 -0.9648
vn -0.6155 -0.3289 0.7163
vn 0.5542 -0.2438 0.7959
vn 0.9076 -0.2901 -0.3034
vn 0.2186 -0.8558 -0.4689
vn -0.4168 -0.7864 0.4560
vn 0.6286 -0.7489 -0.2096
vn 0.4282 -0.6894 0.5843
vn 0.8591 -0.0605 -0.5082
vn -0.1895 -0.9344 -0.3017
vn -0.6550 -0.2565 -0.7107
vn 0.7923 -0.0129 0.6100
vn -0.3352 0.0591 0.9403
vn -0.2426 -0.1488 -0.9587
vn 0.7937 -0.0258 -0.6077
vn 0.4429 0.5923 0.6730
vn -0.3549 0.7980 0.4871
vn -0.7552 0.6319 -0.1745
vn -0.0827 0.6993 -0.7100
vn 0.6214 0.7535 -0.2147
vn 0.3650 0.8755 -0.3167
vn -0.1965 0.8498 0.4891
vn 0.8222 0.4935 -0.2835
vn 0.7934 -0.0414 -0.6073
vn -0.0370 0.4900 -0.8709
vn -0.8019 0.5673 -0.1876
vn -0.3529 -0.0330 0.9351
vn 0.4835 0.4903 0.7252
vn 0.7923 -0.0284 0.6094
vn 0.1011 -0.4001 -0.9109
vn -0.7853 -0.1778 -0.5930
vn -0.9054 -0.4130 -0.0987
vn -0.9061 -0.1200 0.4057
vn -0.5499 -0.2224 0.8051
vn 0.5213 -0.4315 0.7363
vn 0.8430 -0.4584 -0.2816
vn -0.3926 -0.8896 0.2333
vn -0.3193 -0.8086 0.4942
vn -0.0688 0.7362 0.6732
vn 0.3022 0.0867 0.9493
vn 0.6578 -0.6420 0.3939
vn 0.9116 -0.1035 -0.3978
vn -0.1655 0.7611 -0.6272
vn -0.2279 -0.9737 0.0005
vn 0.7719 -0.1524 0.6172
vn -0.5764 0.2649 -0.7731
vn 0.4456 0.1685 -0.8792
vn -0.5083 -0.2451 -0.8255
vn -0.3914 -0.9126 -0.1180
vn 0.3766 -0.9213 0.0969
vn 0.3349 -0.6903 -0.6413
vn 0.0973 -0.9614 -0.2575
vn -0.3319 -0.9383 -0.0969
vn -0.0843 -0.3309 -0.9399
vn 0.1352 0.0298 -0.9904
vn 0.6537 -0.1022 -0.7498
vn 0.9825 -0.0676 -0.1736
vn 0.3773 -0.6738 -0.6353
vn 0.7661 -0.6114 -0.1980
vn 0.6971 -0.7152 0.0503
vn -0.1198 -0.3018 0.9458
vn -0.1995 -0.3059 0.9309
vn -0.9751 -0.1656 0.1476
vn -0.7333 -0.6061 0.3079
vn -0.7427 0.0142 -0.6695
vn -0.5055 0.5336 -0.6781
vn 0.6311 0.5636 0.5330
vn 0.4478 0.1817 0.8755
vn 0.2670 -0.6641 0.6983
vn -0.7454 0.0130 -0.6665
vn 0.4014 0.7405 -0.5391
vn 0.3370 0.7061 -0.6227
vn 0.6145 0.5577 0.5580
vn 0.9114 -0.1108 -0.3964
vn 0.2743 0.1844 0.9438
vn 0.2732 -0.9614 0.0326
vn -0.4831 -0.2708 0.8326
vn -0.6141 -0.1695 0.7708
vn -0.8493 -0.2866 0.4435
vn -0.9357 0.3526 -0.0093
vn -0.5997 0.7967 -0.0751
vn -0.6539 0.7497 0.1018
vn -0.3412 0.9143 -0.2185
vn 0.1745 0.9786 -0.1092
vn 0.1971 0.1311 0.9716
vn -0.0850 0.6304 0.7716
vn 0.3490 0.7949 0.4963
vn 0.3273 0.7863 0.5241
usemtl Material.013
s off
f 55//1 56//1 49//1
f 49//2 56//2 51//2
f 55//3 50//3 57//3
f 49//4 51//4 52//4
f 49//5 52//5 53//5
f 50//6 53//6 54//6
f 57//7 50//7 54//7
f 51//8 57//8 54//8
f 52//9 51//9 54//9
f 53//10 52//10 54//10
f 56//11 57//11 51//11
f 56//12 55//12 57//12
f 55//13 53//13 50//13
f 53//14 55//14 49//14
f 64//15 67//15 58//15
f 58//16 67//16 60//16
f 66//17 62//17 59//17
f 65//18 59//18 69//18
f 58//19 60//19 61//19
f 68//20 61//20 62//20
f 59//21 62//21 63//21
f 69//22 59//22 63//22
f 60//23 69//23 63//23
f 61//24 60//24 63//24
f 62//25 61//25 63//25
f 67//26 69//26 60//26
f 68//27 58//27 61//27
f 67//28 65//28 69//28
f 65//29 66//29 59//29
f 66//30 68//30 62//30
f 64//31 58//31 68//31
f 64//32 65//32 67//32
f 66//33 64//33 68//33
f 64//34 66//34 65//34
f 76//15 79//15 70//15
f 70//16 79//16 72//16
f 78//17 74//17 71//17
f 77//18 71//18 81//18
f 70//19 72//19 73//19
f 80//35 73//35 74//35
f 71//21 74//21 75//21
f 81//22 71//22 75//22
f 72//23 81//23 75//23
f 73//24 72//24 75//24
f 74//25 73//25 75//25
f 79//26 81//26 72//26
f 80//27 70//27 73//27
f 79//28 77//28 81//28
f 77//29 78//29 71//29
f 78//30 80//30 74//30
f 76//31 70//31 80//31
f 76//32 77//32 79//32
f 78//33 76//33 80//33
f 76//34 78//34 77//34
f 88//36 92//36 82//36
f 82//37 92//37 84//37
f 90//38 94//38 95//38
f 89//39 95//39 96//39
f 82//40 84//40 98//40
f 93//41 98//41 94//41
f 83//42 86//42 99//42
f 96//43 83//43 87//43
f 84//44 96//44 87//44
f 85//45 84//45 87//45
f 86//46 85//46 99//46
f 99//47 85//47 87//47
f 87//48 83//48 99//48
f 94//49 85//49 86//49
f 94//50 98//50 85//50
f 98//51 84//51 85//51
f 97//52 96//52 84//52
f 96//53 95//53 83//53
f 95//54 86//54 83//54
f 95//55 94//55 86//55
f 93//56 82//56 98//56
f 84//57 92//57 97//57
f 92//58 91//58 97//58
f 97//59 91//59 96//59
f 91//60 89//60 96//60
f 89//61 90//61 95//61
f 90//62 93//62 94//62
f 88//31 82//31 93//31
f 92//63 88//63 91//63
f 88//64 89//64 91//64
f 90//33 88//33 93//33
f 88//34 90//34 89//34
f 113//65 109//65 111//65
f 100//66 109//66 103//66
f 100//67 103//67 116//67
f 101//68 100//68 115//68
f 102//69 112//69 104//69
f 103//70 120//70 114//70
f 101//71 115//71 117//71
f 102//72 104//72 119//72
f 104//73 117//73 108//73
f 105//74 122//74 126//74
f 106//75 105//75 126//75
f 107//76 123//76 125//76
f 125//77 126//77 108//77
f 125//78 123//78 126//78
f 123//79 106//79 126//79
f 126//80 122//80 108//80
f 122//81 104//81 108//81
f 108//82 117//82 124//82
f 117//83 121//83 124//83
f 124//84 125//84 108//84
f 124//85 121//85 125//85
f 121//86 107//86 125//86
f 114//87 123//87 107//87
f 114//88 106//88 123//88
f 120//89 105//89 106//89
f 120//90 118//90 105//90
f 119//91 122//91 105//91
f 119//92 104//92 122//92
f 115//93 121//93 117//93
f 116//94 107//94 121//94
f 114//95 120//95 106//95
f 118//96 119//96 105//96
f 104//97 112//97 117//97
f 112//98 101//98 117//98
f 115//99 116//99 121//99
f 115//100 100//100 116//100
f 116//101 114//101 107//101
f 116//102 103//102 114//102
f 110//103 120//103 103//103
f 110//104 113//104 120//104
f 113//105 118//105 120//105
f 113//106 119//106 118//106
f 113//107 111//107 119//107
f 111//108 102//108 119//108
f 111//109 112//109 102//109
f 111//110 101//110 112//110
f 103//111 109//111 110//111
f 109//112 113//112 110//112
f 111//113 100//113 101//113
f 111//114 109//114 100//114
