# Blender v2.78 (sub 0) OBJ File: 'island3.blend'
# www.blender.org
mtllib island3_stone2.mtl
o NurbsPath
v -1.836293 27.181442 -1.817792
v -1.751187 27.181442 -1.817792
v -1.666081 27.181442 -1.817792
v -1.580974 27.181442 -1.817792
v -1.495868 27.181442 -1.817792
v -1.410761 27.181442 -1.817792
v -1.325655 27.181442 -1.817792
v -1.240549 27.181442 -1.817792
v -1.155442 27.181442 -1.817792
v -1.070336 27.181442 -1.817792
v -0.985230 27.181442 -1.817792
v -0.900123 27.181442 -1.817792
v -0.815017 27.181442 -1.817792
v -0.729910 27.181442 -1.817792
v -0.644804 27.181442 -1.817792
v -0.559698 27.181442 -1.817792
v -0.474591 27.181442 -1.817792
v -0.389485 27.181442 -1.817792
v -0.304378 27.181442 -1.817792
v -0.219272 27.181442 -1.817792
v -0.134166 27.181442 -1.817792
v -0.049059 27.181442 -1.817792
v 0.036047 27.181442 -1.817792
v 0.121153 27.181442 -1.817792
v 0.206260 27.181442 -1.817792
v 0.291366 27.181442 -1.817792
v 0.376473 27.181442 -1.817792
v 0.461579 27.181442 -1.817792
v 0.546685 27.181442 -1.817792
v 0.631792 27.181442 -1.817792
v 0.716898 27.181442 -1.817792
v 0.802005 27.181442 -1.817792
v 0.887111 27.181442 -1.817792
v 0.972217 27.181442 -1.817792
v 1.057324 27.181442 -1.817792
v 1.142430 27.181442 -1.817792
v 1.227536 27.181442 -1.817792
v 1.312643 27.181442 -1.817792
v 1.397749 27.181442 -1.817792
v 1.482856 27.181442 -1.817792
v 1.567962 27.181442 -1.817792
v 1.653068 27.181442 -1.817792
v 1.738175 27.181442 -1.817792
v 1.823281 27.181442 -1.817792
v 1.908387 27.181442 -1.817792
v 1.993494 27.181442 -1.817792
v 2.078600 27.181442 -1.817792
v 2.163707 27.181442 -1.817792
l 1 2
l 2 3
l 3 4
l 4 5
l 5 6
l 6 7
l 7 8
l 8 9
l 9 10
l 10 11
l 11 12
l 12 13
l 13 14
l 14 15
l 15 16
l 16 17
l 17 18
l 18 19
l 19 20
l 20 21
l 21 22
l 22 23
l 23 24
l 24 25
l 25 26
l 26 27
l 27 28
l 28 29
l 29 30
l 30 31
l 31 32
l 32 33
l 33 34
l 34 35
l 35 36
l 36 37
l 37 38
l 38 39
l 39 40
l 40 41
l 41 42
l 42 43
l 43 44
l 44 45
l 45 46
l 46 47
l 47 48
o Icosphere.000_Icosphere.009
v 7.553128 11.569347 5.724609
v 7.152534 11.815048 7.256577
v 7.814855 12.349046 5.995564
v 7.043848 12.388986 5.846985
v 6.479053 11.745844 6.583651
v 7.294984 12.644818 6.785667
v 7.208759 11.063204 6.214811
v 7.318538 11.223074 6.923595
v 8.123898 11.531405 6.342874
v 6.962221 11.697588 5.753148
v 8.006994 11.958532 6.946771
vn -0.4539 0.7597 0.4656
vn -0.7344 0.0107 0.6786
vn -0.3710 0.3741 -0.8500
vn -0.1957 -0.2627 0.9448
vn 0.8477 -0.1684 0.5030
vn 0.6521 -0.4558 -0.6058
vn -0.2372 -0.4484 -0.8618
vn -0.6649 -0.7285 -0.1648
vn -0.1047 -0.9520 0.2875
vn 0.7422 -0.6700 -0.0159
vn -0.9414 -0.3331 0.0534
vn 0.0182 -0.1366 0.9905
vn -0.6092 0.5871 -0.5331
vn 0.5778 0.5172 -0.6314
vn 0.1720 0.6225 0.7635
vn -0.4366 0.8898 -0.1331
vn 0.7265 0.5660 0.3898
vn 0.5846 0.7673 -0.2636
usemtl Material.012
s off
f 55//1 57//1 49//1
f 49//2 57//2 51//2
f 56//3 50//3 59//3
f 49//4 51//4 52//4
f 58//5 52//5 53//5
f 50//6 53//6 54//6
f 59//7 50//7 54//7
f 51//8 59//8 54//8
f 52//9 51//9 54//9
f 53//10 52//10 54//10
f 57//11 59//11 51//11
f 58//12 49//12 52//12
f 57//13 56//13 59//13
f 56//14 53//14 50//14
f 55//15 49//15 58//15
f 55//16 56//16 57//16
f 53//17 55//17 58//17
f 55//18 53//18 56//18
