# Blender v2.78 (sub 0) OBJ File: 'island3.blend'
# www.blender.org
mtllib island3_stone4.mtl
o NurbsPath
v -1.836293 27.181442 -1.817792
v -1.751187 27.181442 -1.817792
v -1.666081 27.181442 -1.817792
v -1.580974 27.181442 -1.817792
v -1.495868 27.181442 -1.817792
v -1.410761 27.181442 -1.817792
v -1.325655 27.181442 -1.817792
v -1.240549 27.181442 -1.817792
v -1.155442 27.181442 -1.817792
v -1.070336 27.181442 -1.817792
v -0.985230 27.181442 -1.817792
v -0.900123 27.181442 -1.817792
v -0.815017 27.181442 -1.817792
v -0.729910 27.181442 -1.817792
v -0.644804 27.181442 -1.817792
v -0.559698 27.181442 -1.817792
v -0.474591 27.181442 -1.817792
v -0.389485 27.181442 -1.817792
v -0.304378 27.181442 -1.817792
v -0.219272 27.181442 -1.817792
v -0.134166 27.181442 -1.817792
v -0.049059 27.181442 -1.817792
v 0.036047 27.181442 -1.817792
v 0.121153 27.181442 -1.817792
v 0.206260 27.181442 -1.817792
v 0.291366 27.181442 -1.817792
v 0.376473 27.181442 -1.817792
v 0.461579 27.181442 -1.817792
v 0.546685 27.181442 -1.817792
v 0.631792 27.181442 -1.817792
v 0.716898 27.181442 -1.817792
v 0.802005 27.181442 -1.817792
v 0.887111 27.181442 -1.817792
v 0.972217 27.181442 -1.817792
v 1.057324 27.181442 -1.817792
v 1.142430 27.181442 -1.817792
v 1.227536 27.181442 -1.817792
v 1.312643 27.181442 -1.817792
v 1.397749 27.181442 -1.817792
v 1.482856 27.181442 -1.817792
v 1.567962 27.181442 -1.817792
v 1.653068 27.181442 -1.817792
v 1.738175 27.181442 -1.817792
v 1.823281 27.181442 -1.817792
v 1.908387 27.181442 -1.817792
v 1.993494 27.181442 -1.817792
v 2.078600 27.181442 -1.817792
v 2.163707 27.181442 -1.817792
l 1 2
l 2 3
l 3 4
l 4 5
l 5 6
l 6 7
l 7 8
l 8 9
l 9 10
l 10 11
l 11 12
l 12 13
l 13 14
l 14 15
l 15 16
l 16 17
l 17 18
l 18 19
l 19 20
l 20 21
l 21 22
l 22 23
l 23 24
l 24 25
l 25 26
l 26 27
l 27 28
l 28 29
l 29 30
l 30 31
l 31 32
l 32 33
l 33 34
l 34 35
l 35 36
l 36 37
l 37 38
l 38 39
l 39 40
l 40 41
l 41 42
l 42 43
l 43 44
l 44 45
l 45 46
l 46 47
l 47 48
o Icosphere.000_Icosphere.009
v -4.125197 14.293268 3.768788
v -4.688554 13.902540 4.394278
v -4.641036 14.542404 3.818648
v -4.518807 14.178457 3.592626
v -4.370582 13.709215 4.001709
v -4.950418 14.093814 3.954220
v -4.094628 14.149709 4.371713
v -4.404086 14.613352 4.290765
v -4.768915 14.417618 4.383834
v -13.354072 6.346904 4.373464
v -13.725057 5.326329 4.951297
v -15.318408 5.445684 5.392238
v -15.685933 6.578322 5.069464
v -14.681638 7.384239 4.425555
v -14.035102 5.537323 6.341315
v -15.269032 6.984182 6.248971
v -15.076804 7.487215 5.547623
v -13.622010 7.615107 5.372468
v -13.935403 6.305869 6.683964
v -14.063510 6.260118 4.061466
v -14.026073 7.091560 4.214458
v -14.821057 6.657525 3.962010
v -14.519988 5.245879 4.556394
v -14.418942 5.115471 5.135879
v -15.447158 6.109271 4.151219
v -15.328702 7.072665 4.635861
v -14.272025 7.010271 4.803268
v -13.832051 6.124734 5.351717
v -13.693274 6.766644 5.181031
v -14.367921 5.761092 5.652898
v -14.943227 6.196168 5.709494
v -14.578824 7.073392 5.206500
v -14.982678 6.672475 5.106678
v -13.174527 7.079624 5.547869
v -13.388040 5.848899 6.131009
v -14.690669 5.830002 6.552412
v -14.297799 7.806090 5.630992
v -13.350608 6.680343 6.284000
v -13.698104 7.427925 6.093006
v -14.653232 6.661445 6.705403
v -14.503173 7.416239 6.353456
vn -0.8206 -0.5639 -0.0927
vn -0.3860 -0.8639 0.3235
vn -0.0277 -0.0246 -0.9993
vn -0.1947 -0.5638 0.8026
vn -0.4712 0.4904 0.7332
vn 0.5504 0.8342 0.0350
vn 0.8757 0.1272 -0.4658
vn 0.8306 -0.5530 0.0658
vn 0.6511 -0.2305 0.7232
vn 0.3940 0.6715 0.6275
vn 0.4520 -0.8871 -0.0936
vn -0.1145 -0.2445 -0.9629
vn -0.3226 0.7191 -0.6155
vn -0.8893 0.4327 0.1481
vn -0.0110 -0.4345 -0.9006
vn 0.3825 0.1505 -0.9116
vn 0.7455 0.6657 -0.0329
vn 0.9027 -0.0900 0.4207
vn -0.0068 -0.6247 0.7808
vn -0.6514 0.0049 0.7588
vn -0.2951 0.8738 0.3866
vn 0.6103 -0.2883 0.7378
vn -0.1502 -0.3203 0.9353
vn -0.1363 0.7730 0.6197
vn 0.5097 0.8203 0.2594
vn 0.4548 -0.4112 0.7900
vn -0.6292 -0.1132 0.7689
vn -0.4892 0.7667 0.4158
vn 0.3561 0.8946 0.2700
vn 0.2766 0.4014 0.8731
vn 0.1501 0.8516 0.5022
vn -0.3867 0.8531 0.3504
vn 0.2139 0.3776 0.9009
vn -0.3660 0.4521 0.8134
vn -0.0589 -0.1781 0.9823
vn 0.1050 -0.4163 0.9032
vn 0.6276 -0.1681 0.7602
vn 0.9784 -0.0792 0.1911
vn 0.3443 0.3795 0.8587
vn 0.7674 0.4685 0.4377
vn 0.7020 0.6677 0.2476
vn -0.0620 0.7185 -0.6927
vn -0.6158 0.5583 -0.5559
vn -0.1290 0.5337 -0.8358
vn -0.9682 0.0229 -0.2490
vn -0.9461 -0.2814 -0.1604
vn -0.8995 -0.4289 0.0832
vn -0.6055 -0.7801 -0.1575
vn -0.4289 -0.8994 -0.0850
vn 0.2808 -0.8645 -0.4168
vn 0.3021 -0.8314 -0.4664
vn 0.7334 -0.3908 -0.5562
vn 0.5097 0.1484 -0.8474
vn -0.2258 0.4434 -0.8674
vn -0.5601 0.3811 0.7356
vn -0.1313 0.7056 0.6963
vn 0.3708 -0.5982 0.7104
vn 0.6685 -0.3227 -0.6700
vn 0.9027 -0.0829 0.4222
vn 0.5803 0.1326 -0.8035
vn 0.2447 0.9414 0.2322
vn 0.4690 0.8269 0.3101
vn -0.4829 0.5349 -0.6933
vn -0.5800 0.4219 -0.6969
vn -0.8752 0.2989 -0.3803
vn -0.9416 -0.3276 -0.0775
vn -0.5532 -0.7571 -0.3475
vn -0.3763 -0.9158 -0.1405
vn 0.2199 -0.9428 -0.2505
vn -0.0288 0.5415 -0.8402
vn 0.2142 0.1674 -0.9623
vn -0.0297 -0.2956 -0.9548
vn 0.4139 -0.5578 -0.7194
vn 0.3933 -0.5401 -0.7441
usemtl Material.012
s off
f 55//1 56//1 49//1
f 49//2 56//2 51//2
f 55//3 50//3 57//3
f 49//4 51//4 52//4
f 49//5 52//5 53//5
f 50//6 53//6 54//6
f 57//7 50//7 54//7
f 51//8 57//8 54//8
f 52//9 51//9 54//9
f 53//10 52//10 54//10
f 56//11 57//11 51//11
f 56//12 55//12 57//12
f 55//13 53//13 50//13
f 53//14 55//14 49//14
f 73//15 68//15 71//15
f 58//16 68//16 69//16
f 58//17 69//17 77//17
f 59//18 58//18 76//18
f 60//19 72//19 78//19
f 61//20 60//20 79//20
f 62//21 74//21 80//21
f 59//22 76//22 78//22
f 60//23 78//23 79//23
f 61//24 79//24 81//24
f 62//25 80//25 75//25
f 63//26 83//26 67//26
f 64//27 84//27 88//27
f 65//28 64//28 89//28
f 66//29 85//29 87//29
f 87//30 89//30 67//30
f 87//31 85//31 89//31
f 85//32 65//32 89//32
f 89//33 88//33 67//33
f 89//34 64//34 88//34
f 88//35 84//35 67//35
f 84//36 63//36 67//36
f 67//37 83//37 86//37
f 83//38 82//38 86//38
f 86//39 87//39 67//39
f 86//40 82//40 87//40
f 82//41 66//41 87//41
f 75//42 85//42 66//42
f 75//43 80//43 85//43
f 80//44 65//44 85//44
f 81//45 64//45 65//45
f 81//46 79//46 64//46
f 79//47 84//47 64//47
f 79//48 78//48 84//48
f 78//49 63//49 84//49
f 78//50 83//50 63//50
f 78//51 76//51 83//51
f 76//52 82//52 83//52
f 77//53 66//53 82//53
f 80//54 81//54 65//54
f 80//55 74//55 81//55
f 74//56 61//56 81//56
f 72//57 59//57 78//57
f 76//58 77//58 82//58
f 76//59 58//59 77//59
f 77//60 75//60 66//60
f 77//61 69//61 75//61
f 69//62 62//62 75//62
f 70//63 74//63 62//63
f 70//64 73//64 74//64
f 73//65 61//65 74//65
f 73//66 60//66 61//66
f 73//67 71//67 60//67
f 71//68 72//68 60//68
f 71//69 59//69 72//69
f 69//70 70//70 62//70
f 69//71 68//71 70//71
f 68//72 73//72 70//72
f 71//73 58//73 59//73
f 71//74 68//74 58//74
